{
  "title": "Last.Knights.2015.720p.WEB-DL.DD5.1.H264-RARBG",
  "uid": 11795809,
  "size": 3820582893,
  "categoryP": "video",
  "categoryS": "hd___movies",
  "magnet": "?xt=urn:btih:7a195c4c8bf63d20edd4b8efaea6e807ab6a7e5c&amp;dn=Last.Knights.2015.720p.WEB-DL.DD5.1.H264-RARBG&amp;tr=udp%3A%2F%2Ftracker.openbittorrent.com%3A80&amp;tr=udp%3A%2F%2Fopen.demonii.com%3A1337&amp;tr=udp%3A%2F%2Ftracker.coppersurfer.tk%3A6969&amp;tr=udp%3A%2F%2Fexodus.desync.com%3A6969",
  "seeders": 233,
  "leechers": 12,
  "uploader": "vickey1992",
  "files": 5,
  "time": 1428165194,
  "description": "Video\nID                                       : 1\nFormat                                   : AVC\nFormat/Info                              : Advanced Video Codec\nFormat profile                           : &lt;a class=&quot;__cf_email__&quot; href=&quot;/cdn-cgi/l/email-protection&quot; data-cfemail=&quot;7a371b13143a3649544b&quot;&gt;[email&amp;#160;protected]&lt;/a&gt;&lt;script cf-hash='f9e31' type=&quot;text/javascript&quot;&gt;\n/* &lt;![CDATA[ */!function(){try{var t=&quot;currentScript&quot;in document?document.currentScript:function(){for(var t=document.getElementsByTagName(&quot;script&quot;),e=t.length;e--;)if(t[e].getAttribute(&quot;cf-hash&quot;))return t[e]}();if(t&amp;&amp;t.previousSibling){var e,r,n,i,c=t.previousSibling,a=c.getAttribute(&quot;data-cfemail&quot;);if(a){for(e=&quot;&quot;,r=parseInt(a.substr(0,2),16),n=2;a.length-n;n+=2)i=parseInt(a.substr(n,2),16)^r,e+=String.fromCharCode(i);e=document.createTextNode(e),c.parentNode.replaceChild(e,c)}}}catch(u){}}();/* ]]&gt; */&lt;/script&gt;\nFormat settings, CABAC                   : No\nFormat settings, ReFrames                : 2 frames\nCodec ID                                 : V_MPEG4/ISO/AVC\nDuration                                 : 1h 54mn\nBit rate                                 : 3 960 Kbps\nWidth                                    : 1 280 pixels\nHeight                                   : 528 pixels\nDisplay aspect ratio                     : 2.40:1\nFrame rate mode                          : Constant\nFrame rate                               : 23.976 fps\nColor space                              : YUV\nChroma subsampling                       : 4:2:0\nBit depth                                : 8 bits\nScan type                                : Progressive\nBits/(Pixel*Frame)                       : 0.244\nStream size                              : 3.18 GiB (89%)\nTitle                                    : Last.Knights.2015.720p.WEB-DL.DD5.1.H264-RARBG\nLanguage                                 : English\nDefault                                  : Yes\nForced                                   : No\nColor primaries                          : BT.709\nTransfer characteristics                 : BT.709\nMatrix coefficients                      : BT.709\nColor range                              : Limited\n\nAudio\nID                                       : 2\nFormat                                   : AC-3\nFormat/Info                              : Audio Coding 3\nMode extension                           : CM (complete main)\nFormat settings, Endianness              : Big\nCodec ID                                 : A_AC3\nDuration                                 : 1h 54mn\nBit rate mode                            : Constant\nBit rate                                 : 384 Kbps\nChannel(s)                               : 6 channels\nChannel positions                        : Front: L C R, Side: L R, LFE\nSampling rate                            : 48.0 KHz\nBit depth                                : 16 bits\nCompression mode                         : Lossy\nStream size                              : 316 MiB (9%)\nTitle                                    : Last.Knights.2015.720p.WEB-DL.DD5.1.H264-RARBG\nLanguage                                 : English\nDefault                                  : Yes\nForced                                   : No\n\nText\nID                                       : 3\nFormat                                   : UTF-8\nCodec ID                                 : S_TEXT/UTF8\nCodec ID/Info                            : UTF-8 Plain Text\nLanguage                                 : English\nDefault                                  : No\nForced                                   : No\n\nMenu\n00:00:00.000                             : en:Chapter 1\n00:11:11.000                             : en:Chapter 2\n00:21:04.000                             : en:Chapter 3\n00:32:43.000                             : en:Chapter 4\n00:42:30.000                             : en:Chapter 5\n00:52:36.000                             : en:Chapter 6\n01:02:26.000                             : en:Chapter 7\n01:12:50.000                             : en:Chapter 8\n01:22:12.000                             : en:Chapter 9\n01:32:06.000                             : en:Chapter 10\n01:43:12.000                             : en:Chapter 11\n01:48:28.000                             : en:Chapter 12\n\n\n\nNotes:\nGreetz to all!",
  "parsed": {
    "xt": "urn:btih:7a195c4c8bf63d20edd4b8efaea6e807ab6a7e5c",
    "dn": "Last.Knights.2015.720p.WEB-DL.DD5.1.H264-RARBG",
    "tr": [
      "udp://exodus.desync.com:6969",
      "udp://open.demonii.com:1337",
      "udp://tracker.coppersurfer.tk:6969",
      "udp://tracker.openbittorrent.com:80"
    ],
    "infoHash": "7a195c4c8bf63d20edd4b8efaea6e807ab6a7e5c",
    "infoHashBuffer": {
      "type": "Buffer",
      "data": [
        122,
        25,
        92,
        76,
        139,
        246,
        61,
        32,
        237,
        212,
        184,
        239,
        174,
        166,
        232,
        7,
        171,
        106,
        126,
        92
      ]
    },
    "name": "Last.Knights.2015.720p.WEB-DL.DD5.1.H264-RARBG",
    "announce": [
      "udp://exodus.desync.com:6969",
      "udp://open.demonii.com:1337",
      "udp://tracker.coppersurfer.tk:6969",
      "udp://tracker.openbittorrent.com:80"
    ],
    "urlList": []
  },
  "previous": 7,
  "peers": 11,
  "last_updated": "2016-12-27T04:35:56.204Z"
}